<svg xmlns="http://www.w3.org/2000/svg" viewBox="0 0 105 134"><defs><style>.cls-1{fill:#fb3;}.cls-2{fill:#f99157;}.cls-3{fill:#c9c;}</style></defs><g id="Layer_2" data-name="Layer 2"><g id="Layer_1-2" data-name="Layer 1"><rect class="cls-1" x="0.5" y="0.5" width="104" height="38.41" rx="8.35"/><path d="M96.15,1A7.86,7.86,0,0,1,104,8.85V30.57a7.85,7.85,0,0,1-7.85,7.84H8.85A7.85,7.85,0,0,1,1,30.57V8.85A7.86,7.86,0,0,1,8.85,1h87.3m0-1H8.85A8.85,8.85,0,0,0,0,8.85V30.57a8.84,8.84,0,0,0,8.85,8.84h87.3A8.84,8.84,0,0,0,105,30.57V8.85A8.85,8.85,0,0,0,96.15,0Z"/><rect class="cls-2" x="0.5" y="47.79" width="104" height="38.41" rx="8.35"/><path d="M96.15,48.29A7.86,7.86,0,0,1,104,56.14V77.86a7.86,7.86,0,0,1-7.85,7.85H8.85A7.86,7.86,0,0,1,1,77.86V56.14a7.86,7.86,0,0,1,7.85-7.85h87.3m0-1H8.85A8.85,8.85,0,0,0,0,56.14V77.86a8.85,8.85,0,0,0,8.85,8.85h87.3A8.85,8.85,0,0,0,105,77.86V56.14a8.85,8.85,0,0,0-8.85-8.85Z"/><rect class="cls-3" x="0.5" y="95.09" width="104" height="38.41" rx="8.35"/><path d="M96.15,95.59a7.85,7.85,0,0,1,7.85,7.84v21.72A7.86,7.86,0,0,1,96.15,133H8.85A7.86,7.86,0,0,1,1,125.15V103.43a7.85,7.85,0,0,1,7.85-7.84h87.3m0-1H8.85A8.84,8.84,0,0,0,0,103.43v21.72A8.85,8.85,0,0,0,8.85,134h87.3a8.85,8.85,0,0,0,8.85-8.85V103.43a8.84,8.84,0,0,0-8.85-8.84Z"/></g></g></svg>